<svg xmlns="http://www.w3.org/2000/svg" width="1816.139" height="234.727" viewBox="0 0 192.208 24.842">
  <path
    d="M53.613.428L47.086.42a2.921 2.921 0 00-2.916 2.915 2.92 2.92 0 002.916 2.916l5.44-.005c3.643 0 6.663 2.635 6.663 5.804 0 3.173-2.964 6.462-6.605 6.462H41.29v-6.947C41.29 5.186 35.686 0 29.305 0a11.56 11.56 0 00-8.657 3.898C18.468 1.433 14.906 0 11.575 0 5.196 0 .005 5.185.005 11.566L0 21.887c0 1.609 1.306 2.955 2.913 2.955 1.61 0 2.915-1.346 2.915-2.955H5.82l.002-9.234c0-3.644 2.582-6.604 5.753-6.604 3.13 0 6.124 2.926 6.164 6.511l-.009 9.327c0 1.609 1.306 2.955 2.918 2.955 1.606 0 2.917-1.346 2.917-2.955l-.007-9.295c.028-3.608 2.607-6.543 5.747-6.543 3.172 0 6.17 2.96 6.17 6.604l-.014 8.762a2.92 2.92 0 002.542 2.889l15.667.024c6.377 0 11.57-5.897 11.57-12.277C65.24 5.673 59.998.428 53.613.428"
    fill="#a7a48b"/>
  <path
    d="M79.794 13.695a7.772 7.772 0 00-1.615-1.228 23.363 23.363 0 00-1.844-.958c-.629-.29-1.242-.576-1.842-.86a10.068 10.068 0 01-1.613-.94 4.394 4.394 0 01-1.134-1.177c-.286-.444-.428-.973-.428-1.588 0-.42.075-.82.224-1.193.147-.376.368-.701.663-.975.297-.273.67-.49 1.129-.656.453-.163.988-.248 1.604-.248.66 0 1.253.085 1.782.248.528.167.987.35 1.374.547.188.098.244.124.252.127.616.446 1.212.35 1.623-.162.337-.422.333-1.044.048-1.477l-.073-.12a1.036 1.036 0 00-.186-.23c-.109-.106-.333-.249-.674-.425 0 0-.733-.336-1.17-.478-.438-.14-.902-.255-1.399-.34a8.629 8.629 0 00-1.476-.129c-.956 0-1.847.129-2.67.383-.825.258-1.535.63-2.135 1.117a5.081 5.081 0 00-1.397 1.817c-.336.723-.508 1.545-.508 2.47 0 .896.145 1.667.436 2.311.294.642.67 1.2 1.136 1.678.469.484.995.897 1.588 1.25.59.35 1.199.671 1.827.964.622.29 1.239.573 1.833.852.597.28 1.13.586 1.597.922.467.337.842.725 1.127 1.17.285.442.428.979.428 1.602 0 .583-.105 1.099-.31 1.552a3.112 3.112 0 01-.877 1.153 4.07 4.07 0 01-1.368.725 5.619 5.619 0 01-1.747.257c-.845 0-1.584-.099-2.229-.3a11.07 11.07 0 01-1.648-.636 8.492 8.492 0 00-.409-.206c-.67-.475-1.304-.359-1.724.2a1.275 1.275 0 00-.019 1.494l.198.252c.132.135.366.3.701.494.336.193.753.38 1.244.561.498.183 1.06.338 1.693.461 0 0 1.317.188 2.059.188a9.94 9.94 0 002.957-.425c.917-.286 1.713-.708 2.389-1.273a5.905 5.905 0 001.588-2.056c.38-.808.572-1.73.572-2.762 0-.877-.145-1.64-.436-2.284a5.646 5.646 0 00-1.141-1.67M111.921 13.695a7.751 7.751 0 00-1.615-1.228 23.22 23.22 0 00-1.842-.958c-.63-.29-1.243-.576-1.843-.86a10.088 10.088 0 01-1.614-.94 4.392 4.392 0 01-1.133-1.177c-.287-.444-.429-.973-.429-1.588 0-.42.075-.82.225-1.193.146-.376.367-.701.662-.975.298-.273.671-.49 1.13-.656.453-.163.988-.248 1.603-.248.66 0 1.253.085 1.783.248.528.167.987.35 1.374.547.188.098.243.124.252.127.617.446 1.211.35 1.623-.162.336-.422.333-1.044.048-1.477l-.074-.12a1 1 0 00-.184-.23c-.111-.106-.333-.249-.674-.425 0 0-.734-.336-1.17-.478-.439-.14-.903-.255-1.4-.34a8.635 8.635 0 00-1.477-.129 9.03 9.03 0 00-2.67.383c-.824.258-1.535.63-2.134 1.117a5.082 5.082 0 00-1.397 1.817c-.336.723-.508 1.545-.508 2.47 0 .896.145 1.667.436 2.311.294.642.67 1.2 1.136 1.678a7.59 7.59 0 001.588 1.25c.59.35 1.199.671 1.827.964.621.29 1.238.573 1.833.852.597.28 1.13.586 1.596.922.468.337.842.725 1.127 1.17.286.442.428.979.428 1.602 0 .583-.105 1.099-.309 1.552a3.115 3.115 0 01-.877 1.153c-.384.314-.84.557-1.368.725a5.617 5.617 0 01-1.746.257c-.846 0-1.585-.099-2.23-.3a10.968 10.968 0 01-1.647-.636 7.957 7.957 0 00-.41-.206c-.67-.475-1.305-.359-1.725.2a1.273 1.273 0 00-.018 1.494l.198.252c.132.135.366.3.7.494.336.193.754.38 1.245.561.496.183 1.06.338 1.692.461 0 0 1.318.188 2.059.188a9.947 9.947 0 002.958-.425c.917-.286 1.713-.708 2.388-1.273a5.933 5.933 0 001.59-2.056c.38-.808.57-1.73.57-2.762 0-.877-.144-1.64-.435-2.284a5.657 5.657 0 00-1.142-1.67M190.63 13.695a7.76 7.76 0 00-1.614-1.228 23.556 23.556 0 00-1.844-.958c-.629-.29-1.242-.576-1.841-.86a10.084 10.084 0 01-1.614-.94 4.37 4.37 0 01-1.134-1.177c-.286-.444-.428-.973-.428-1.588 0-.42.075-.82.223-1.193.148-.376.369-.701.664-.975.296-.273.671-.49 1.129-.656.454-.163.988-.248 1.603-.248.66 0 1.254.085 1.783.248.528.167.986.35 1.374.547.188.098.243.124.252.127.616.446 1.211.35 1.624-.162.336-.422.331-1.044.047-1.477l-.074-.12a.968.968 0 00-.185-.23c-.11-.106-.333-.249-.673-.425 0 0-.733-.336-1.17-.478-.44-.14-.903-.255-1.4-.34a8.637 8.637 0 00-1.476-.129c-.957 0-1.848.129-2.672.383-.823.258-1.534.63-2.131 1.117a5.075 5.075 0 00-1.4 1.817c-.336.723-.508 1.545-.508 2.47 0 .896.147 1.667.436 2.311.295.642.67 1.2 1.136 1.678.469.484.995.897 1.589 1.25.59.35 1.198.671 1.827.964.622.29 1.238.573 1.833.852.597.28 1.13.586 1.596.922.468.337.842.725 1.128 1.17.285.442.428.979.428 1.602 0 .583-.105 1.099-.309 1.552-.205.456-.5.842-.878 1.153a4.08 4.08 0 01-1.368.725 5.625 5.625 0 01-1.747.257c-.845 0-1.584-.099-2.23-.3a11.072 11.072 0 01-2.057-.842c-.67-.475-1.303-.359-1.723.2a1.272 1.272 0 00-.018 1.494l.197.252c.132.135.365.3.701.494.335.193.752.38 1.245.561.496.183 1.06.338 1.691.461 0 0 1.318.188 2.06.188a9.95 9.95 0 002.957-.425c.916-.286 1.713-.708 2.387-1.273a5.919 5.919 0 001.591-2.056c.38-.808.571-1.73.571-2.762 0-.877-.145-1.64-.436-2.284a5.657 5.657 0 00-1.142-1.67M145.37 21.39l-2.678.001c-.028 0-.055.006-.082.007h-5.372v-7.9h4.176l.012.002 1.569-.002h.64l.406-.001c.47.001.872-.268 1.07-.659a1.195 1.195 0 00-1.071-1.727l-2.614.003c-.043 0-.085.008-.126.012h-4.062V4.199h5.113c.067.011.256-.004.3.011l2.58.006a1.221 1.221 0 10-.001-2.443l-.994-.011-.106-.005h-8.732c-.267 0-.512.088-.745.263-.232.18-.349.489-.349.933v19.695c0 .443.117.752.35.929.232.176.477.264.744.264h8.434l1.54.01c.477 0 .892-.294 1.092-.696a1.221 1.221 0 00-1.093-1.766M130.303 1.76l-.93.002v-.005H116.99v.004l-.766.002c-.686.001-1.238.556-1.24 1.242a1.232 1.232 0 001.235 1.234l.905-.002v.012h4.674v14.956c0 .021-.005.04-.005.06l.005 2.05v.327h.001l.003.84a1.472 1.472 0 001.475 1.471 1.464 1.464 0 001.468-1.464l-.009-3.218-.001-.013V4.248h2.771c.024.002.046.008.071.008l2.719-.01a1.255 1.255 0 001.111-.689c.083-.168.13-.359.13-.556a1.235 1.235 0 00-1.234-1.242M97.862 2.201a1.366 1.366 0 00-.497-.401 1.407 1.407 0 00-1.872.655l-.162.303-.043.078-2.791 5.8c-.285.625-.568 1.259-.844 1.9a77.502 77.502 0 00-.803 1.941h-.035c-.296-.673-.582-1.339-.867-1.997a54.653 54.653 0 00-.848-1.897L87.655 5.59a1.341 1.341 0 00-.1-.273l-1.403-2.86a1.458 1.458 0 00-1.946-.668 1.449 1.449 0 00-.667 1.942l.17.348-.013.008.786 1.572.46.933c.02.044.046.083.071.123l4.276 8.54v4l-.001.01.001.404v2.156h.007l.003.658c0 .575.334 1.074.816 1.316.197.097.423.152.657.154a1.463 1.463 0 001.468-1.464l-.008-3.218c0-.02-.006-.037-.006-.056v-3.96l4.281-8.505c.046-.064.128-.246.164-.318l1.34-2.768a1.388 1.388 0 00-.149-1.463M174.954 19.273l-.002-.024V3.086c0-.237-.033-.437-.103-.604a1.205 1.205 0 00-.267-.408 1.017 1.017 0 00-.403-.241 1.56 1.56 0 00-.49-.076h-1.89c-.29 0-.542.03-.763.095a1.655 1.655 0 00-.6.307c-.179.142-.341.333-.492.57-.154.24-.29.528-.418.87l-6.57 15.941h-.084l-6.317-15.993a4.16 4.16 0 00-.361-.801 1.959 1.959 0 00-.52-.563 2.219 2.219 0 00-.729-.324 4.048 4.048 0 00-.973-.102h-1.8c-.315 0-.595.102-.847.306-.255.205-.384.548-.384 1.023v18.727h.01l.002.669a1.468 1.468 0 001.47 1.464 1.46 1.46 0 001.462-1.463l-.005-3.21-.002-.02V4.162h.014l7.442 19.319c.023.069.066.13.127.19.065.055.151.103.267.143.113.04.256.068.426.094.173.024.375.035.614.035.228 0 .422-.008.589-.026.164-.017.308-.046.428-.084a.725.725 0 00.273-.148.564.564 0 00.143-.204l7.784-19.319h.036v17.84h.005l.002.479a1.468 1.468 0 001.467 1.464 1.461 1.461 0 001.464-1.463z"
    fill="#515257"/>
</svg>
